<svg width="141" height="56" viewBox="0 0 141 56" fill="none" xmlns="http://www.w3.org/2000/svg">
<path d="M3.87374 4.8711C3.10936 4.26146 2.14956 4.19112 1.28172 3.86285C0.471354 3.55217 -0.109121 2.91909 0.0173191 2.05153C0.149507 1.14293 0.787455 0.509848 1.78173 0.503986C6.01173 0.474677 10.2417 0.351577 14.466 0.498125C17.0523 0.591915 18.7994 2.23911 19.8282 4.6249C22.2478 10.2347 24.6674 15.8446 27.064 21.4603C29.8515 27.9963 32.6102 34.5382 35.3918 41.0742C36.162 42.8855 36.2482 44.562 35.2367 46.4085C33.9493 48.7533 33.001 51.2797 31.8802 53.7183C31.4837 54.58 31.0354 55.5062 29.9492 55.5531C28.7307 55.6117 28.2365 54.6327 27.8227 53.689C23.8915 44.7027 19.9834 35.7105 16.058 26.7301C13.5522 21.003 11.0981 15.2525 8.46008 9.58406C7.70718 7.97204 7.24165 5.90866 5.06918 5.40453C4.66112 5.22868 4.26456 5.04696 3.87374 4.8711Z" fill="#45AAF2"/>
<path d="M133.223 55.9457C131.792 55.9457 130.344 55.8285 128.924 55.9751C126.947 56.1744 125.912 55.1602 125.188 53.4837C123.539 49.6442 121.924 45.7871 120.154 42.0003C118.958 39.4445 117.527 37.0001 116.188 34.5146C115.2 32.6857 113.912 31.1734 112.004 30.2589C111.148 29.8486 110.257 29.3034 110.378 28.1779C110.515 26.9411 111.59 26.6832 112.585 26.4311C113.211 26.2728 113.832 26.1087 114.458 25.9621C120.309 24.5963 122.516 20.5927 122.286 15.0473C122.027 8.86886 117.585 4.57795 111.86 4.26727C110.504 4.19107 109.136 4.24969 107.78 4.1559C106.694 4.07969 105.745 3.55212 105.705 2.34457C105.659 1.09013 106.452 0.263598 107.694 0.216703C114.004 -0.0412203 120.332 -0.275696 126.338 2.27423C131.292 4.37865 133.844 8.26508 134.286 13.6873C134.763 19.4789 133.298 24.2036 127.821 27.029C125.217 28.3714 125.384 28.4359 126.757 31.0737C129.102 35.5757 131.344 40.1362 133.533 44.7202C134.982 47.7508 137.102 50.1542 139.689 52.1883C140.499 52.8214 141.304 53.5306 140.89 54.7382C140.476 55.9633 139.378 55.9399 138.378 55.9575C136.66 55.9868 134.936 55.9692 133.217 55.9692C133.223 55.9575 133.223 55.9516 133.223 55.9457Z" fill="#45AAF2"/>
<path d="M47.985 25.2706C47.985 18.6173 47.962 11.9641 47.9965 5.31081C48.0137 1.23679 49.1287 0.146477 53.1346 0.134753C56.7956 0.123029 60.4509 0.111306 64.1119 0.134753C65.2613 0.140615 66.6292 0.0819962 66.9051 1.55919C67.1809 3.03639 65.8763 3.46431 64.8188 3.90981C60.8876 5.58632 59.8646 7.13972 59.8072 11.4365C59.6635 22.4041 59.4911 33.3658 59.3474 44.3334C59.2899 48.853 60.4738 50.6233 64.5257 52.3701C65.4912 52.7863 66.8016 53.1439 66.5372 54.5331C66.2901 55.8462 65.0199 55.9341 63.9222 55.94C57.037 55.9517 50.146 55.9517 43.2607 55.94C42.6917 55.94 42.117 55.8345 41.5653 55.6997C40.8871 55.5297 40.3986 55.0666 40.3469 54.3397C40.3009 53.689 40.7722 53.2494 41.2894 52.9915C41.9274 52.6691 42.6228 52.458 43.2952 52.2177C46.4447 51.0922 47.9563 49.0288 47.9678 45.67C48.0022 38.8702 47.985 32.0704 47.985 25.2706Z" fill="#45AAF2"/>
<path d="M96.1534 55.3438C92.7798 55.3438 89.4119 55.6838 86.0382 55.6604C85.3313 55.6545 84.6129 55.5549 83.9175 55.4142C83.2738 55.2852 82.9577 54.7635 82.9232 54.1422C82.8887 53.5208 83.1416 52.9991 83.7565 52.7529C84.0899 52.6239 84.4347 52.5243 84.7738 52.407C89.3486 50.8654 90.1705 49.1537 88.3946 44.5931C85.2853 36.6092 82.1243 28.6429 78.9978 20.6649C78.0495 18.238 77.1069 15.8112 76.2103 13.3668C75.4919 11.4148 75.7735 9.60346 76.8368 7.78628C77.8885 5.97495 78.7047 4.01708 79.5725 2.10024C80.0036 1.15061 80.5438 -0.0510787 81.4864 0.00167834C82.4691 0.0602973 83.2163 1.14475 83.6531 2.18817C84.9405 5.27738 86.2336 8.36075 87.5152 11.4558C92.0556 22.4117 96.5672 33.3735 101.142 44.3117C102.562 47.6999 104.705 50.455 108.234 51.8384C109.096 52.1784 110.079 52.6298 109.861 53.8256C109.642 55.0507 108.625 55.3321 107.562 55.338C103.757 55.3556 99.9581 55.3438 96.1534 55.3438C96.1534 55.2383 96.1534 55.4552 96.1534 55.3438Z" fill="#45AAF2"/>
<path d="M17.6186 55.9633C12.2851 55.9633 7.35971 55.9809 2.43429 55.9457C1.69863 55.9399 0.687113 56.1216 0.428486 55.1133C0.129627 53.9644 1.1469 53.6713 1.89979 53.2961C4.54354 51.9948 6.34819 49.9314 7.41718 47.1529C7.76777 46.2443 7.92869 44.9547 9.19309 44.9664C10.4345 44.9781 10.5897 46.2795 10.992 47.1646C12.4863 50.4355 14.6243 52.9268 18.2738 53.6596C18.9692 53.8003 19.6014 54.1344 19.4405 54.9082C19.1991 56.063 17.7037 55.9633 17.6186 55.9633Z" fill="#45AAF2"/>
</svg>
